<svg width="512" height="512" viewBox="0 0 512 512" fill="none" xmlns="http://www.w3.org/2000/svg">
<path d="M256 512C397.385 512 512 397.385 512 256C512 114.615 397.385 0 256 0C114.615 0 0 114.615 0 256C0 397.385 114.615 512 256 512Z" fill="#0078D4"/>
<path d="M396.12 359.56L398.64 366.76H392.52L393.24 368.56C393.24 368.8 393.24 369.16 393.24 369.64C393.48 369.88 393.6 370.12 393.6 370.36H391.44V371.08C391.44 373.96 390.36 376.12 388.2 377.56H388.56C387.36 378.52 385.8 379 383.88 379H317.28C315.6 379 314.16 378.88 312.96 378.64C312 378.16 310.92 377.8 309.72 377.56C307.8 376.6 306.36 375.52 305.4 374.32C304.44 372.88 303.72 371.56 303.24 370.36H305.04V370L304.32 368.56L303.6 366.76H309.72L307.2 359.56H300.36L299.28 355.96H314.04L311.52 348.76H307.2L306.12 346.24H228.72L228 348.76H223.68L221.16 355.96H217.2L215.76 359.56H213.6L211.08 366.76H211.44L210.72 368.56L210.36 370L210 370.36H208.2C207.72 371.56 207 372.88 206.04 374.32C205.08 375.52 203.64 376.6 201.72 377.56H212.52C211.56 377.8 210.48 378.16 209.28 378.64C208.08 378.88 206.64 379 204.96 379H138.36C136.44 379 135 378.52 134.04 377.56H123.24C120.84 375.88 119.64 373.72 119.64 371.08V370.36H121.8C121.8 369.64 121.92 369.04 122.16 368.56L122.52 366.76H122.16L124.68 359.56H126.84L128.28 355.96H132.24L134.76 348.76H138.72L141.24 341.56H127.2L128.64 337.96H127.56L129.36 332.56H132.96L133.68 330.76H125.76L128.28 323.56H140.52L141.6 319.96H130.44L131.16 318.16H132.96L135.48 310.96H134.4L136.2 305.56H137.64L140.16 298.36H144.84L146.64 292.96L147.36 291.16H165.36L166.08 289.36H165L166.8 283.96H146.64L149.16 276.76H155.64L156.36 274.96H152.4L153.12 273.16H164.64L167.16 265.96H153.12L154.56 262.36H159.96L162.48 255.16H159.24L161.04 249.76H165L167.52 242.56H166.44L167.16 240.76H158.88L160.32 237.16H168.24L170.04 231.76H166.44L166.8 229.96H173.28L175.8 222.76H167.88L169.68 217.36H165.72L166.8 213.76H141.96L143.04 210.16H138.36L140.88 202.96H136.2L138.36 197.56H152.4L154.92 190.36H190.92L192.72 184.96H175.44L176.88 181.36H190.2L192.72 174.16H180.84L182.64 168.76H190.2L192.72 161.56H191.64L194.16 154.36H184.08L184.44 152.56H219L221.52 145.36H220.44L221.16 143.56H208.56L210 138.88L211.08 136.36H214.68L216.84 132.76H215.76C216.96 131.08 218.64 129.76 220.8 128.8C222.96 127.6 225.6 127 228.72 127H306.84C309.96 127 312.6 127.6 314.76 128.8C316.92 129.76 318.6 131.08 319.8 132.76H321.24L323.4 136.36H319.8C320.28 137.32 320.52 138.16 320.52 138.88L322.32 143.56H334.92L335.28 145.36H336.36L338.88 152.56H304.68L305.4 154.36H315.48L318 161.56H319.08L321.6 168.76H314.04L315.84 174.16H327.72L330.24 181.36H316.92L318.36 184.96H335.64L337.44 190.36H301.44L303.96 197.56H289.92L291.72 202.96H296.04L298.56 210.16H284.52L285.96 213.76H343.2L344.28 217.36H341.4L343.2 222.76H336L338.52 229.96H329.88L330.24 231.76H343.2L345 237.16H345.36L346.8 240.76H334.92L335.64 242.56H347.16L349.68 249.76H353.64L355.44 255.16H354.36L356.88 262.36H362.64L364.08 265.96H353.64L356.16 273.16H363.36L363.72 274.96H361.92L362.64 276.76H356.16L358.32 283.96H378.84L380.64 289.36H381.72L382.44 291.16H364.08L364.8 292.96H365.16L366.96 298.36H362.28L364.8 305.56H363L365.16 310.96H366.24L368.76 318.16H366.96L367.68 319.96H378.84L380.28 323.56H367.68L370.2 330.76H378.12L378.84 332.56H375.24L377.4 337.96H378.12L379.56 341.56H393.6L396.12 348.76H400.44L402.96 355.96H388.2L389.28 359.56H396.12ZM245.64 217.36H249.96L248.16 222.76H262.92L261.12 217.36H264L262.92 213.76H246.72L245.64 217.36ZM257.52 229.96L255.72 223.84L253.92 229.96H257.52ZM235.92 273.16L235.2 274.96H239.16L238.8 276.04H279.48L279.12 274.96H280.92L280.56 273.16H273.36L271.2 265.96H281.64L280.56 262.36H274.44L272.28 255.16H273.36L271.92 249.76H267.96L265.8 242.56H254.28L253.56 240.76H265.44L264.36 237.16H264L262.2 231.76H250.68L249.24 237.16H241.32L240.24 240.76H248.16L247.8 242.56H248.88L246.72 249.76H242.76L240.96 255.16H244.2L242.04 262.36H236.64L235.56 265.96H249.6L247.44 273.16H235.92Z" fill="white"/>
</svg>
